<svg width="20" height="20" viewBox="0 0 20 20" fill="none" xmlns="http://www.w3.org/2000/svg">
<g id="Group 14241">
<g id="Group">
<path id="Vector" d="M5.31761 10.3201C5.28131 10.2799 5.20872 10.2398 5.17242 10.1996C5.06353 10.1193 4.95463 10.0791 4.80944 10.0791C4.62796 10.0791 4.44647 10.0791 4.26498 10.0791C4.22868 10.0791 4.22868 10.0791 4.19238 10.0791C4.08349 10.0791 4.0109 10.0791 3.902 10.1594C3.82941 10.1996 3.72051 10.2398 3.68422 10.3201C3.64792 10.3603 3.61162 10.4406 3.57532 10.4808C3.50273 10.6013 3.46643 10.7218 3.46643 10.8824C3.46643 11.0832 3.46643 11.2841 3.46643 11.4849C3.46643 11.5251 3.46643 11.5251 3.46643 11.5652C3.46643 11.6857 3.46643 11.7661 3.53903 11.8866C3.57532 11.9669 3.61162 12.0874 3.68422 12.1275C3.72051 12.1677 3.79311 12.2079 3.82941 12.248C3.9383 12.3284 4.04719 12.3685 4.19238 12.3685C4.37387 12.3685 4.55536 12.3685 4.73685 12.3685C4.77315 12.3685 4.77315 12.3685 4.80944 12.3685C4.88204 12.3685 4.91834 12.3685 4.99093 12.3284C4.99093 12.3284 4.99093 12.3284 5.02723 12.3284C5.09982 12.2882 5.17242 12.2882 5.20872 12.248C5.24502 12.2079 5.31761 12.1677 5.35391 12.1275C5.39021 12.0874 5.4265 12.0472 5.4628 11.9669C5.4628 11.9267 5.4991 11.8866 5.4991 11.8866C5.4991 11.8464 5.5354 11.8062 5.5354 11.7661C5.5354 11.6857 5.57169 11.6456 5.57169 11.5652C5.57169 11.3644 5.57169 11.1636 5.57169 10.9627C5.57169 10.9226 5.57169 10.9226 5.57169 10.8824C5.57169 10.7619 5.57169 10.6816 5.4991 10.5611C5.4265 10.4808 5.39021 10.3603 5.31761 10.3201Z" fill="white"/>
<path id="Vector_2" d="M8.2577 10.3201C8.22141 10.2799 8.14881 10.2398 8.11251 10.1996C8.00362 10.1193 7.89473 10.0791 7.74954 10.0791C7.56805 10.0791 7.38656 10.0791 7.20507 10.0791C7.16878 10.0791 7.16878 10.0791 7.13248 10.0791C7.02358 10.0791 6.95099 10.0791 6.8421 10.1594C6.7695 10.1996 6.66061 10.2398 6.62431 10.3201C6.58801 10.3603 6.55172 10.4406 6.51542 10.4808C6.44282 10.6013 6.40652 10.7218 6.40652 10.8824C6.40652 11.0832 6.40652 11.2841 6.40652 11.4849C6.40652 11.5251 6.40652 11.5251 6.40652 11.5652C6.40652 11.6857 6.40652 11.7661 6.47912 11.8866C6.51542 11.9669 6.55172 12.0874 6.62431 12.1275C6.66061 12.1677 6.7332 12.2079 6.7695 12.248C6.87839 12.3284 6.98729 12.3685 7.13248 12.3685C7.31397 12.3685 7.49545 12.3685 7.67694 12.3685C7.71324 12.3685 7.71324 12.3685 7.74954 12.3685C7.82213 12.3685 7.85843 12.3685 7.93103 12.3284C7.93103 12.3284 7.93103 12.3284 7.96732 12.3284C8.03992 12.2882 8.11251 12.2882 8.14881 12.248C8.18511 12.2079 8.2577 12.1677 8.294 12.1275C8.3303 12.0874 8.3666 12.0472 8.40289 11.9669C8.40289 11.9267 8.43919 11.8866 8.43919 11.8866C8.43919 11.8464 8.47549 11.8062 8.47549 11.7661C8.47549 11.6857 8.51179 11.6456 8.51179 11.5652C8.51179 11.3644 8.51179 11.1636 8.51179 10.9627C8.51179 10.9226 8.51179 10.9226 8.51179 10.8824C8.51179 10.7619 8.51179 10.6816 8.43919 10.5611C8.3666 10.4808 8.3303 10.3603 8.2577 10.3201Z" fill="white"/>
<path id="Vector_3" d="M13.4483 13.1316C13.412 13.0915 13.3394 13.0513 13.3031 13.0111C13.1942 12.9308 13.0853 12.8906 12.9401 12.8906C12.7586 12.8906 12.5771 12.8906 12.3957 12.8906C12.3594 12.8906 12.3594 12.8906 12.3231 12.8906C12.2142 12.8906 12.1416 12.8906 12.0327 12.971C11.9601 13.0111 11.8512 13.0513 11.8149 13.1316C11.7786 13.1718 11.7423 13.2521 11.706 13.2923C11.6334 13.4128 11.5971 13.5333 11.5971 13.6939C11.5971 13.8948 11.5971 14.0956 11.5971 14.2964C11.5971 14.3366 11.5971 14.3366 11.5971 14.3768C11.5971 14.4973 11.5971 14.5776 11.6697 14.6981C11.706 14.7784 11.7423 14.8989 11.8149 14.9391C11.8512 14.9792 11.9238 15.0194 11.9601 15.0596C12.069 15.1399 12.1779 15.1801 12.3231 15.1801C12.5045 15.1801 12.686 15.1801 12.8675 15.1801C12.9038 15.1801 12.9038 15.1801 12.9401 15.1801C13.0127 15.1801 13.049 15.1801 13.1216 15.1399C13.1216 15.1399 13.1216 15.1399 13.1579 15.1399C13.2305 15.0997 13.3031 15.0997 13.3394 15.0596C13.3757 15.0194 13.4483 14.9792 13.4846 14.9391C13.5209 14.8989 13.5572 14.8587 13.5935 14.7784C13.5935 14.7382 13.6298 14.6981 13.6298 14.6981C13.6298 14.6579 13.6661 14.6177 13.6661 14.5776C13.6661 14.4973 13.7024 14.4571 13.7024 14.3768C13.7024 14.1759 13.7024 13.9751 13.7024 13.7743C13.7024 13.7341 13.7024 13.7341 13.7024 13.6939C13.7024 13.5734 13.7024 13.4931 13.6298 13.3726C13.5572 13.2923 13.5209 13.2119 13.4483 13.1316Z" fill="white"/>
<path id="Vector_4" d="M16.5336 13.1316C16.4973 13.0915 16.4247 13.0513 16.3884 13.0111C16.2795 12.9308 16.1706 12.8906 16.0254 12.8906C15.8439 12.8906 15.6624 12.8906 15.481 12.8906C15.4447 12.8906 15.4447 12.8906 15.4084 12.8906C15.2995 12.8906 15.2269 12.8906 15.118 12.971C15.0454 13.0111 14.9365 13.0513 14.9002 13.1316C14.8639 13.1718 14.8276 13.2521 14.7913 13.2923C14.7187 13.4128 14.6824 13.5333 14.6824 13.6939C14.6824 13.8948 14.6824 14.0956 14.6824 14.2964C14.6824 14.3366 14.6824 14.3366 14.6824 14.3768C14.6824 14.4973 14.6824 14.5776 14.755 14.6981C14.7913 14.7784 14.8276 14.8989 14.9002 14.9391C14.9365 14.9792 15.0091 15.0194 15.0454 15.0596C15.1543 15.1399 15.2632 15.1801 15.4084 15.1801C15.5898 15.1801 15.7713 15.1801 15.9528 15.1801C15.9891 15.1801 15.9891 15.1801 16.0254 15.1801C16.098 15.1801 16.1343 15.1801 16.2069 15.1399C16.2069 15.1399 16.2069 15.1399 16.2432 15.1399C16.3158 15.0997 16.3884 15.0997 16.4247 15.0596C16.461 15.0194 16.5336 14.9792 16.5699 14.9391C16.6062 14.8989 16.6425 14.8587 16.6788 14.7784C16.6788 14.7382 16.7151 14.6981 16.7151 14.6981C16.7151 14.6579 16.7514 14.6177 16.7514 14.5776C16.7514 14.4973 16.7877 14.4571 16.7877 14.3768C16.7877 14.1759 16.7877 13.9751 16.7877 13.7743C16.7877 13.7341 16.7877 13.7341 16.7877 13.6939C16.7877 13.5734 16.7877 13.4931 16.7151 13.3726C16.6425 13.2923 16.6062 13.2119 16.5336 13.1316Z" fill="white"/>
<path id="Vector_5" d="M16.5336 15.9837C16.4973 15.9435 16.4247 15.9033 16.3884 15.8632C16.2795 15.7828 16.1706 15.7427 16.0254 15.7427C15.8439 15.7427 15.6624 15.7427 15.481 15.7427C15.4447 15.7427 15.4447 15.7427 15.4084 15.7427C15.2995 15.7427 15.2269 15.7427 15.118 15.823C15.0454 15.8632 14.9365 15.9033 14.9002 15.9837C14.8639 16.0238 14.8276 16.1042 14.7913 16.1443C14.7187 16.2648 14.6824 16.3853 14.6824 16.546C14.6824 16.7468 14.6824 16.9476 14.6824 17.1485C14.6824 17.1886 14.6824 17.1886 14.6824 17.2288C14.6824 17.3493 14.6824 17.4296 14.755 17.5501C14.7913 17.6305 14.8276 17.751 14.9002 17.7911C14.9365 17.8313 15.0091 17.8715 15.0454 17.9116C15.1543 17.992 15.2632 18.0321 15.4084 18.0321C15.5898 18.0321 15.7713 18.0321 15.9528 18.0321C15.9891 18.0321 15.9891 18.0321 16.0254 18.0321C16.098 18.0321 16.1343 18.0321 16.2069 17.992C16.2069 17.992 16.2069 17.992 16.2432 17.992C16.3158 17.9518 16.3884 17.9518 16.4247 17.9116C16.461 17.8715 16.5336 17.8313 16.5699 17.7911C16.6062 17.751 16.6425 17.7108 16.6788 17.6305C16.6788 17.5903 16.7151 17.5501 16.7151 17.5501C16.7151 17.51 16.7514 17.4698 16.7514 17.4296C16.7514 17.3493 16.7877 17.3091 16.7877 17.2288C16.7877 17.028 16.7877 16.8271 16.7877 16.6263C16.7877 16.5862 16.7877 16.5862 16.7877 16.546C16.7877 16.4255 16.7877 16.3452 16.7151 16.2247C16.6425 16.1443 16.6062 16.064 16.5336 15.9837Z" fill="white"/>
<path id="Vector_6" d="M13.412 15.9031C13.3757 15.8629 13.3031 15.8228 13.2668 15.7826C13.1579 15.7023 13.049 15.6621 12.9038 15.6621C12.7223 15.6621 12.5408 15.6621 12.3593 15.6621C12.323 15.6621 12.323 15.6621 12.2867 15.6621C12.1779 15.6621 12.1053 15.6621 11.9964 15.7424C11.9238 15.7826 11.8149 15.8228 11.7786 15.9031C11.7423 15.9433 11.706 16.0236 11.6697 16.0638C11.5971 16.1843 11.5608 16.3048 11.5608 16.4654C11.5608 16.6663 11.5608 16.8671 11.5608 17.0679C11.5608 17.1081 11.5608 17.1081 11.5608 17.1482C11.5608 17.2687 11.5608 17.3491 11.6334 17.4696C11.6697 17.5499 11.706 17.6704 11.7786 17.7106C11.8149 17.7507 11.8875 17.7909 11.9238 17.8311C12.0327 17.9114 12.1416 17.9516 12.2867 17.9516C12.4682 17.9516 12.6497 17.9516 12.8312 17.9516C12.8675 17.9516 12.8675 17.9516 12.9038 17.9516C12.9764 17.9516 13.0127 17.9516 13.0853 17.9114C13.0853 17.9114 13.0853 17.9114 13.1216 17.9114C13.1942 17.8712 13.2668 17.8712 13.3031 17.8311C13.3394 17.7909 13.412 17.7507 13.4483 17.7106C13.4846 17.6704 13.5209 17.6302 13.5572 17.5499C13.5572 17.5097 13.5935 17.4696 13.5935 17.4696C13.5935 17.4294 13.6298 17.3892 13.6298 17.3491C13.6298 17.2687 13.6661 17.2286 13.6661 17.1482C13.6661 16.9474 13.6661 16.7466 13.6661 16.5458C13.6661 16.5056 13.6661 16.5056 13.6661 16.4654C13.6661 16.3449 13.6661 16.2646 13.5935 16.1441C13.5209 16.0638 13.4846 15.9834 13.412 15.9031Z" fill="white"/>
<path id="Vector_7" d="M11.9238 7.22716C11.9601 7.26732 12.0327 7.30749 12.069 7.34766C12.1779 7.42799 12.2867 7.46815 12.4319 7.46815C12.6134 7.46815 12.7949 7.46815 12.9764 7.46815C13.0127 7.46815 13.0127 7.46815 13.049 7.46815C13.1216 7.46815 13.1579 7.46815 13.2305 7.42799C13.2305 7.42799 13.2305 7.42799 13.2668 7.42799C13.3394 7.38782 13.412 7.38782 13.4483 7.34766C13.4846 7.30749 13.5572 7.26732 13.5935 7.22716C13.6298 7.18699 13.6661 7.14683 13.7024 7.0665C13.7024 7.02633 13.7386 6.98616 13.7386 6.98616C13.7386 6.946 13.7749 6.90583 13.7749 6.86567C13.7749 6.78534 13.8112 6.74517 13.8112 6.66484C13.8112 6.46401 13.8112 6.26318 13.8112 6.06236C13.8112 6.02219 13.8112 6.02219 13.8112 5.98202C13.8112 5.86153 13.8112 5.7812 13.7386 5.6607C13.7024 5.58037 13.6661 5.45987 13.5935 5.4197C13.5572 5.37954 13.4846 5.33937 13.4483 5.29921C13.3394 5.21888 13.2305 5.17871 13.0853 5.17871C12.9038 5.17871 12.7223 5.17871 12.5408 5.17871C12.5045 5.17871 12.5045 5.17871 12.4682 5.17871C12.3593 5.17871 12.2867 5.17871 12.1779 5.25904C12.1053 5.29921 11.9964 5.33937 11.9601 5.4197C11.9238 5.45987 11.8875 5.5402 11.8512 5.58037C11.7786 5.70086 11.7423 5.82136 11.7423 5.98202C11.7423 6.18285 11.7423 6.38368 11.7423 6.58451C11.7423 6.62467 11.7423 6.62467 11.7423 6.66484C11.7423 6.78534 11.7423 6.86567 11.8149 6.98616C11.8149 7.0665 11.8512 7.14683 11.9238 7.22716Z" fill="white"/>
<path id="Vector_8" d="M8.91107 7.22716C8.94737 7.26732 9.01997 7.30749 9.05626 7.34766C9.16516 7.42799 9.27405 7.46815 9.41924 7.46815C9.60073 7.46815 9.78222 7.46815 9.9637 7.46815C10 7.46815 10 7.46815 10.0363 7.46815C10.1089 7.46815 10.1452 7.46815 10.2178 7.42799C10.2178 7.42799 10.2178 7.42799 10.2541 7.42799C10.3267 7.38782 10.3993 7.38782 10.4356 7.34766C10.4719 7.30749 10.5445 7.26732 10.5808 7.22716C10.6171 7.18699 10.6534 7.14683 10.6897 7.0665C10.6897 7.02633 10.726 6.98616 10.726 6.98616C10.726 6.946 10.7623 6.90583 10.7623 6.86567C10.7623 6.78534 10.7985 6.74517 10.7985 6.66484C10.7985 6.46401 10.7985 6.26318 10.7985 6.06236C10.7985 6.02219 10.7985 6.02219 10.7985 5.98202C10.7985 5.86153 10.7985 5.7812 10.726 5.6607C10.6897 5.58037 10.6534 5.45987 10.5808 5.4197C10.5445 5.37954 10.4719 5.33937 10.4356 5.29921C10.3267 5.21888 10.2178 5.17871 10.0726 5.17871C9.89111 5.17871 9.70962 5.17871 9.52813 5.17871C9.49183 5.17871 9.49183 5.17871 9.45554 5.17871C9.34664 5.17871 9.27405 5.17871 9.16516 5.25904C9.09256 5.29921 8.98367 5.33937 8.94737 5.4197C8.91107 5.45987 8.87477 5.5402 8.83848 5.58037C8.76588 5.70086 8.72958 5.82136 8.72958 5.98202C8.72958 6.18285 8.72958 6.38368 8.72958 6.58451C8.72958 6.62467 8.72958 6.62467 8.72958 6.66484C8.72958 6.78534 8.72958 6.86567 8.80218 6.98616C8.76588 7.0665 8.83848 7.18699 8.91107 7.22716Z" fill="white"/>
<path id="Vector_9" d="M8.2577 13.1316C8.22141 13.0915 8.14881 13.0513 8.11251 13.0111C8.00362 12.9308 7.89473 12.8906 7.74954 12.8906C7.56805 12.8906 7.38656 12.8906 7.20507 12.8906C7.16878 12.8906 7.16878 12.8906 7.13248 12.8906C7.02358 12.8906 6.95099 12.8906 6.8421 12.971C6.7695 13.0111 6.66061 13.0513 6.62431 13.1316C6.58801 13.1718 6.55172 13.2521 6.51542 13.2923C6.44282 13.4128 6.40652 13.5333 6.40652 13.6939C6.40652 13.8948 6.40652 14.0956 6.40652 14.2964C6.40652 14.3366 6.40652 14.3366 6.40652 14.3768C6.40652 14.4973 6.40652 14.5776 6.47912 14.6981C6.51542 14.7784 6.55172 14.8989 6.62431 14.9391C6.66061 14.9792 6.7332 15.0194 6.7695 15.0596C6.87839 15.1399 6.98729 15.1801 7.13248 15.1801C7.31397 15.1801 7.49545 15.1801 7.67694 15.1801C7.71324 15.1801 7.71324 15.1801 7.74954 15.1801C7.82213 15.1801 7.85843 15.1801 7.93103 15.1399C7.93103 15.1399 7.93103 15.1399 7.96732 15.1399C8.03992 15.0997 8.11251 15.0997 8.14881 15.0596C8.18511 15.0194 8.2577 14.9792 8.294 14.9391C8.3303 14.8989 8.3666 14.8587 8.40289 14.7784C8.40289 14.7382 8.43919 14.6981 8.43919 14.6981C8.43919 14.6579 8.47549 14.6177 8.47549 14.5776C8.47549 14.4973 8.51179 14.4571 8.51179 14.3768C8.51179 14.1759 8.51179 13.9751 8.51179 13.7743C8.51179 13.7341 8.51179 13.7341 8.51179 13.6939C8.51179 13.5734 8.51179 13.4931 8.43919 13.3726C8.3666 13.2923 8.3303 13.2119 8.2577 13.1316Z" fill="white"/>
<path id="Vector_10" d="M8.22142 15.9837C8.18512 15.9435 8.11253 15.9033 8.07623 15.8632C7.96734 15.7828 7.85844 15.7427 7.71325 15.7427C7.53176 15.7427 7.35028 15.7427 7.16879 15.7427C7.13249 15.7427 7.13249 15.7427 7.09619 15.7427C6.9873 15.7427 6.9147 15.7427 6.80581 15.823C6.73322 15.8632 6.62432 15.9033 6.58803 15.9837C6.55173 16.0238 6.51543 16.1042 6.47913 16.1443C6.40654 16.2648 6.37024 16.3853 6.37024 16.546C6.37024 16.7468 6.37024 16.9476 6.37024 17.1485C6.37024 17.1886 6.37024 17.1886 6.37024 17.2288C6.37024 17.3493 6.37024 17.4296 6.44283 17.5501C6.47913 17.6305 6.51543 17.751 6.58803 17.7911C6.62432 17.8313 6.69692 17.8715 6.73322 17.9116C6.84211 17.992 6.951 18.0321 7.09619 18.0321C7.27768 18.0321 7.45917 18.0321 7.64066 18.0321C7.67695 18.0321 7.67695 18.0321 7.71325 18.0321C7.78585 18.0321 7.82215 18.0321 7.89474 17.992C7.89474 17.992 7.89474 17.992 7.93104 17.992C8.00363 17.9518 8.07623 17.9518 8.11253 17.9116C8.14882 17.8715 8.22142 17.8313 8.25772 17.7911C8.29401 17.751 8.33031 17.7108 8.36661 17.6305C8.36661 17.5903 8.40291 17.5501 8.40291 17.5501C8.40291 17.51 8.4392 17.4698 8.4392 17.4296C8.4392 17.3493 8.4755 17.3091 8.4755 17.2288C8.4755 17.028 8.4755 16.8271 8.4755 16.6263C8.4755 16.5862 8.4755 16.5862 8.4755 16.546C8.4755 16.4255 8.4755 16.3452 8.40291 16.2247C8.33031 16.1443 8.29401 16.064 8.22142 15.9837Z" fill="white"/>
<path id="Vector_11" d="M5.31761 16.0237C5.28131 15.9835 5.20872 15.9434 5.17242 15.9032C5.06353 15.8229 4.95463 15.7827 4.80944 15.7827C4.62796 15.7827 4.44647 15.7827 4.26498 15.7827C4.22868 15.7827 4.22868 15.7827 4.19238 15.7827C4.08349 15.7827 4.0109 15.7827 3.902 15.863C3.82941 15.9032 3.72051 15.9434 3.68422 16.0237C3.64792 16.0639 3.61162 16.1442 3.57532 16.1844C3.50273 16.3049 3.46643 16.4254 3.46643 16.586C3.46643 16.7869 3.46643 16.9877 3.46643 17.1885C3.46643 17.2287 3.46643 17.2287 3.46643 17.2688C3.46643 17.3893 3.46643 17.4697 3.53903 17.5902C3.57532 17.6705 3.61162 17.791 3.68422 17.8312C3.72051 17.8713 3.79311 17.9115 3.82941 17.9517C3.9383 18.032 4.04719 18.0722 4.19238 18.0722C4.37387 18.0722 4.55536 18.0722 4.73685 18.0722C4.77315 18.0722 4.77315 18.0722 4.80944 18.0722C4.88204 18.0722 4.91834 18.0722 4.99093 18.032C4.99093 18.032 4.99093 18.032 5.02723 18.032C5.09982 17.9918 5.17242 17.9918 5.20872 17.9517C5.24502 17.9115 5.31761 17.8713 5.35391 17.8312C5.39021 17.791 5.4265 17.7508 5.4628 17.6705C5.4628 17.6303 5.4991 17.5902 5.4991 17.5902C5.4991 17.55 5.5354 17.5098 5.5354 17.4697C5.5354 17.3893 5.57169 17.3492 5.57169 17.2688C5.57169 17.068 5.57169 16.8672 5.57169 16.6664C5.57169 16.6262 5.57169 16.6262 5.57169 16.586C5.57169 16.4655 5.57169 16.3852 5.4991 16.2647C5.4265 16.1844 5.39021 16.0639 5.31761 16.0237Z" fill="white"/>
<path id="Vector_12" d="M5.31761 13.1316C5.28131 13.0915 5.20872 13.0513 5.17242 13.0111C5.06353 12.9308 4.95463 12.8906 4.80944 12.8906C4.62796 12.8906 4.44647 12.8906 4.26498 12.8906C4.22868 12.8906 4.22868 12.8906 4.19238 12.8906C4.08349 12.8906 4.0109 12.8906 3.902 12.971C3.82941 13.0111 3.72051 13.0513 3.68422 13.1316C3.64792 13.1718 3.61162 13.2521 3.57532 13.2923C3.50273 13.4128 3.46643 13.5333 3.46643 13.6939C3.46643 13.8948 3.46643 14.0956 3.46643 14.2964C3.46643 14.3366 3.46643 14.3366 3.46643 14.3768C3.46643 14.4973 3.46643 14.5776 3.53903 14.6981C3.57532 14.7784 3.61162 14.8989 3.68422 14.9391C3.72051 14.9792 3.79311 15.0194 3.82941 15.0596C3.9383 15.1399 4.04719 15.1801 4.19238 15.1801C4.37387 15.1801 4.55536 15.1801 4.73685 15.1801C4.77315 15.1801 4.77315 15.1801 4.80944 15.1801C4.88204 15.1801 4.91834 15.1801 4.99093 15.1399C4.99093 15.1399 4.99093 15.1399 5.02723 15.1399C5.09982 15.0997 5.17242 15.0997 5.20872 15.0596C5.24502 15.0194 5.31761 14.9792 5.35391 14.9391C5.39021 14.8989 5.4265 14.8587 5.4628 14.7784C5.4628 14.7382 5.4991 14.6981 5.4991 14.6981C5.4991 14.6579 5.5354 14.6177 5.5354 14.5776C5.5354 14.4973 5.57169 14.4571 5.57169 14.3768C5.57169 14.1759 5.57169 13.9751 5.57169 13.7743C5.57169 13.7341 5.57169 13.7341 5.57169 13.6939C5.57169 13.5734 5.57169 13.4931 5.4991 13.3726C5.4265 13.2923 5.39021 13.2119 5.31761 13.1316Z" fill="white"/>
<path id="Vector_13" d="M19.2922 18.3934C19.1833 18.3934 19.1107 18.3934 19.0018 18.3934C19.0018 16.7064 19.0018 15.0195 19.0018 13.3727C19.0018 12.73 19.0381 12.0472 19.0018 11.4046C18.9655 10.6012 18.5299 9.87826 17.804 9.67743C17.5499 9.5971 17.2958 9.63727 17.0417 9.63727C16.7151 9.63727 16.4247 9.63727 16.098 9.63727C16.098 8.4323 16.098 7.22733 16.098 6.02236C16.098 5.37971 16.0617 4.81739 15.6261 4.29524C15.2269 3.81325 14.7913 3.37143 14.3557 2.88944C13.775 2.24679 13.2305 1.64431 12.6497 1.00166C12.1779 0.479504 11.7423 -0.163147 10.98 0.0376815C10.5082 0.158178 10.0726 0.800829 9.70962 1.20248C9.12886 1.84513 8.54809 2.48778 7.96733 3.13043C7.56806 3.57226 7.09619 4.01408 6.73321 4.49607C6.51543 4.73706 6.44283 5.05839 6.40653 5.41988C5.3902 4.93789 4.55535 6.22319 3.93829 6.906C3.17604 7.74948 2.41379 8.59296 1.65154 9.43644C1.32486 9.79793 1.07078 10.1594 1.07078 10.6816C1.07078 10.9226 1.07078 11.2037 1.07078 11.4447C1.07078 13.7342 1.07078 16.0638 1.07078 18.3532V18.3934C0.961887 18.3934 0.816697 18.3934 0.707804 18.3934C-0.235935 18.3934 -0.235935 20 0.707804 20C2.81307 20 4.88203 20 6.9873 20C10.3267 20 13.6661 20 16.9691 20C17.7314 20 18.5299 20 19.2922 20C20.2359 20 20.2359 18.3934 19.2922 18.3934ZM11.4519 1.56398C11.5245 1.44348 11.5971 1.52381 11.4519 1.56398V1.56398ZM8.07623 5.29938C8.29401 5.05838 8.4755 4.85756 8.69328 4.61656C9.23775 4.01408 9.78221 3.41159 10.3267 2.80911C10.5445 2.56812 10.7985 2.28696 11.0163 2.04596C11.0889 1.96563 11.1978 1.8853 11.2704 1.7648C11.3793 1.8853 11.4882 1.96563 11.5608 2.04596C12.069 2.60828 12.6134 3.21077 13.1216 3.77308C13.5572 4.25507 14.029 4.77723 14.4646 5.25921C14.5009 5.29938 14.5735 5.33954 14.6098 5.41988C14.6461 5.46004 14.6461 5.46004 14.6461 5.46004C14.6824 5.58054 14.6461 5.78137 14.6461 5.90186C14.6461 7.147 14.6461 8.39213 14.6461 9.63727C13.6661 9.63727 12.686 9.63727 11.706 9.63727C11.2704 9.63727 10.8348 9.63727 10.4719 9.75776C10.4356 9.7176 10.4356 9.67743 10.3993 9.63727C9.78221 8.91429 9.12886 8.23147 8.4755 7.50849C8.29401 7.30766 8.07623 7.06667 7.89474 6.86584C7.89474 6.62485 7.89474 6.38385 7.89474 6.14286C7.89474 5.98219 7.89474 5.78137 7.89474 5.6207C7.89474 5.6207 7.89474 5.6207 7.89474 5.58054C7.96733 5.46004 8.03993 5.33954 8.07623 5.29938ZM9.31034 10.6816C9.27405 10.6012 9.34664 10.6012 9.31034 10.6816V10.6816ZM2.52269 10.7217C2.52269 10.6414 2.55898 10.6816 2.52269 10.7217V10.7217ZM3.03085 18.3934C2.84936 18.3934 2.70417 18.3934 2.52269 18.3934V18.3532C2.52269 16.4253 2.52269 14.4973 2.52269 12.5292C2.52269 12.0472 2.52269 11.6054 2.52269 11.1234C2.52269 11.0029 2.52269 10.8824 2.52269 10.7619V10.7217C2.70417 10.5611 2.88566 10.3201 3.03085 10.1594C3.43013 9.7176 3.7931 9.31594 4.19238 8.87412C4.55535 8.47246 4.95463 8.03064 5.3176 7.62899C5.46279 7.46832 5.60799 7.30766 5.75318 7.147C5.78947 7.10683 5.86207 7.0265 5.93466 6.94617C5.97096 6.98634 6.00726 7.0265 6.04356 7.0265C6.37024 7.38799 6.69691 7.74948 7.05989 8.15114C7.78584 8.95445 8.4755 9.7176 9.20145 10.5209C9.23775 10.5611 9.27405 10.6012 9.31034 10.6414C9.31034 10.6414 9.31034 10.6414 9.31034 10.6816C9.27405 10.9226 9.27405 11.1636 9.31034 11.4447C9.27405 11.8464 9.31034 12.2882 9.31034 12.6497C9.31034 14.5375 9.31034 16.4253 9.31034 18.3532V18.3934C7.20508 18.3934 5.13612 18.3934 3.03085 18.3934ZM13.0127 18.3934C12.2505 18.3934 11.5245 18.3934 10.7623 18.3934V18.3532C10.7623 16.8269 10.7623 15.3006 10.7623 13.7743C10.7623 13.212 10.7623 12.6497 10.7623 12.1275C10.7623 11.8865 10.7623 11.6455 10.7623 11.3644C10.8348 11.1234 11.0889 11.2037 11.343 11.2037C13.049 11.2037 14.755 11.2037 16.461 11.2037C16.6788 11.2037 17.441 11.0431 17.5136 11.3644C17.5499 11.5251 17.5136 11.7259 17.5136 11.8464C17.5136 12.248 17.5136 12.6095 17.5136 13.0112C17.5136 14.8186 17.5136 16.5859 17.5136 18.3934C16.0254 18.3934 14.5372 18.3934 13.0127 18.3934Z" fill="white"/>
</g>
</g>
</svg>
