<svg width="33" height="33" viewBox="0 0 33 33" fill="none" xmlns="http://www.w3.org/2000/svg">
<g id="Icon / Line / Card">
<path id="Subtract" fill-rule="evenodd" clip-rule="evenodd" d="M2 10.875C2 8.25165 4.12665 6.125 6.75 6.125H26.25C28.8734 6.125 31 8.25165 31 10.875V12.375V22.125C31 24.7484 28.8734 26.875 26.25 26.875H6.75C4.12665 26.875 2 24.7484 2 22.125V12.375V10.875ZM6.75 7.625C4.95507 7.625 3.5 9.08007 3.5 10.875V11.625H29.5V10.875C29.5 9.08007 28.0449 7.625 26.25 7.625H6.75ZM29.5 13.125H3.5V22.125C3.5 23.9199 4.95507 25.375 6.75 25.375H26.25C28.0449 25.375 29.5 23.9199 29.5 22.125V13.125ZM18.5 20.625C18.5 20.2108 18.8358 19.875 19.25 19.875H24.75C25.1642 19.875 25.5 20.2108 25.5 20.625C25.5 21.0392 25.1642 21.375 24.75 21.375H19.25C18.8358 21.375 18.5 21.0392 18.5 20.625Z" fill="white"/>
</g>
</svg>
