<svg width="24" height="24" viewBox="0 0 24 24" fill="none" xmlns="http://www.w3.org/2000/svg">
<g id="bxs:offer">
<path id="Vector" d="M18.4782 13.7891L18.6665 13.4637L19.7704 11.556L18.4782 13.7891ZM18.4782 13.7891L18.6664 14.1146M18.4782 13.7891L18.6664 14.1146M18.6664 14.1146L19.7694 16.0226L19.7696 16.023M18.6664 14.1146L19.7696 16.023M19.7696 16.023C19.7927 16.0628 19.8077 16.1068 19.8137 16.1523C19.8198 16.1979 19.8168 16.2443 19.8049 16.2887C19.7931 16.3331 19.7726 16.3748 19.7446 16.4113C19.7166 16.4478 19.6817 16.4784 19.6419 16.5015L19.6418 16.5015M19.7696 16.023L19.6418 16.5015M19.6418 16.5015L17.7318 17.6055L17.4071 17.7932M19.6418 16.5015L17.4071 17.7932M17.4071 17.7932V18.1682M17.4071 17.7932V18.1682M17.4071 18.1682V20.3672C17.4071 20.4601 17.3702 20.5491 17.3046 20.6147C17.239 20.6804 17.1499 20.7172 17.0571 20.7172H14.8581H14.4829M17.4071 18.1682L14.4829 20.7172M14.4829 20.7172L14.2952 21.0422M14.4829 20.7172L14.2952 21.0422M14.2952 21.0422L13.1928 22.9512C13.1927 22.9514 13.1926 22.9516 13.1925 22.9517C13.1458 23.0319 13.0694 23.0903 12.9798 23.1142C12.8901 23.1382 12.7945 23.1256 12.7141 23.0793C12.714 23.0793 12.7139 23.0792 12.7138 23.0792L10.8044 21.9755L10.4789 21.7874M14.2952 21.0422L10.4789 21.7874M10.4789 21.7874L10.1536 21.9756M10.4789 21.7874L10.1536 21.9756M10.1536 21.9756L8.24587 23.0795C8.24581 23.0795 8.24575 23.0795 8.24569 23.0796C8.19094 23.1112 8.13085 23.1269 8.07202 23.1272C8.01016 23.1266 7.9495 23.11 7.8959 23.079C7.84216 23.048 7.79736 23.0036 7.76584 22.9502C7.76562 22.9498 7.76539 22.9494 7.76516 22.949L6.66287 21.042L6.47518 20.7172M10.1536 21.9756L6.47518 20.7172M6.47518 20.7172H6.10011M6.47518 20.7172H6.10011M6.10011 20.7172H3.90011C3.80729 20.7172 3.71826 20.6804 3.65263 20.6147C3.58699 20.5491 3.55011 20.4601 3.55011 20.3672V18.1682V17.7932M6.10011 20.7172L3.55011 17.7932M3.55011 17.7932L3.22539 17.6055M3.55011 17.7932L3.22539 17.6055M3.22539 17.6055L1.31806 16.503C1.31774 16.5028 1.31742 16.5027 1.3171 16.5025C1.23692 16.4553 1.17853 16.3784 1.15459 16.2885C1.13061 16.1984 1.1431 16.1026 1.18934 16.0217C1.18946 16.0215 1.18959 16.0213 1.18972 16.021L2.29272 14.1148L2.48108 13.7892M3.22539 17.6055L2.48108 13.7892M2.48108 13.7892L2.29272 13.4637M2.48108 13.7892L2.29272 13.4637M2.29272 13.4637L1.18872 11.5557L1.18793 11.5543M2.29272 13.4637L1.18793 11.5543M1.18793 11.5543C1.16488 11.5147 1.14988 11.4709 1.1438 11.4255C1.13772 11.3801 1.14067 11.3339 1.1525 11.2896C1.16433 11.2453 1.18479 11.2037 1.21271 11.1674C1.24063 11.131 1.27547 11.1005 1.31521 11.0777L1.31639 11.077M1.18793 11.5543L1.31639 11.077M1.31639 11.077L3.22639 9.973L3.55111 9.78531M1.31639 11.077L3.55111 9.78531M3.55111 9.78531V9.41024M3.55111 9.78531V9.41024M3.55111 9.41024V7.21124C3.55111 7.11842 3.58799 7.02939 3.65363 6.96375C3.71926 6.89812 3.80829 6.86124 3.90111 6.86124H6.10011H6.47518M3.55111 9.41024L6.47518 6.86124M6.47518 6.86124L6.66287 6.53652M6.47518 6.86124L6.66287 6.53652M6.66287 6.53652L7.76687 4.62652L7.76702 4.62626M6.66287 6.53652L7.76702 4.62626M7.76702 4.62626C7.81343 4.54588 7.88988 4.48722 7.97954 4.4632C8.06912 4.4392 8.16456 4.45173 8.2449 4.49804C8.24497 4.49808 8.24504 4.49812 8.24512 4.49816L10.1546 5.60287L10.48 5.7911M7.76702 4.62626L10.48 5.7911M10.48 5.7911L10.8054 5.603M10.48 5.7911L10.8054 5.603M10.8054 5.603L12.7154 4.499L12.7169 4.49814M10.8054 5.603L12.7169 4.49814M12.7169 4.49814C12.7561 4.47532 12.7995 4.46052 12.8445 4.45459C12.8894 4.44868 12.9349 4.4517 12.9786 4.46349C13.0692 4.4881 13.1465 4.5473 13.1938 4.6283C13.1939 4.62853 13.1941 4.62876 13.1942 4.62899L14.2963 6.53643L14.484 6.86124M12.7169 4.49814L14.484 6.86124M14.484 6.86124H14.8591M14.484 6.86124H14.8591M14.8591 6.86124H17.0581C17.1509 6.86124 17.24 6.89812 17.3056 6.96375C17.3712 7.02939 17.4081 7.11842 17.4081 7.21124V9.41124V9.78631M14.8591 6.86124L17.4081 9.78631M17.4081 9.78631L17.7328 9.974M17.4081 9.78631L17.7328 9.974M17.7328 9.974L19.6426 11.0779L17.7328 9.974ZM19.8055 11.2905C19.7815 11.2009 19.723 11.1245 19.6428 11.078L19.8055 11.2905ZM19.8055 11.2905C19.8294 11.38 19.8168 11.4754 19.7705 11.5557L19.8055 11.2905Z" stroke="#58871D" stroke-width="1.3"/>
<rect id="Rectangle 555" x="7" y="9.77734" width="2" height="2" fill="#58871D"/>
<line id="Line 2" x1="14.535" y1="10.3488" x2="7.2813" y2="17.0856" stroke="#58871D" stroke-width="1.2"/>
<rect id="Rectangle 556" x="12" y="15.7773" width="2" height="2" fill="#58871D"/>
</g>
</svg>
