<svg width="18" height="16" viewBox="0 0 18 16" fill="none" xmlns="http://www.w3.org/2000/svg">
<g id="Group">
<path id="Vector" d="M1.72047 14.4462L1.16405 15.0026L1.72047 14.4462C1.55794 14.2836 1.46663 14.0632 1.46663 13.8333V5.5C1.46663 5.27015 1.55794 5.04971 1.72047 4.88717C1.883 4.72464 2.10344 4.63333 2.33329 4.63333H2.74996C3.1329 4.63333 3.51058 4.54418 3.85309 4.37292C4.1956 4.20167 4.49353 3.95302 4.72329 3.64667L6.48329 1.3H11.5166L13.2766 3.64667L13.9166 3.16667L13.2766 3.64667C13.5064 3.95302 13.8043 4.20167 14.1468 4.37292L14.5046 3.65738L14.1468 4.37292C14.4893 4.54418 14.867 4.63333 15.25 4.63333H15.6666C15.8965 4.63333 16.1169 4.72464 16.2795 4.88717C16.442 5.04971 16.5333 5.27014 16.5333 5.5V13.8333C16.5333 14.0632 16.442 14.2836 16.2795 14.4462C16.1169 14.6087 15.8965 14.7 15.6666 14.7H2.33329C2.10344 14.7 1.883 14.6087 1.72047 14.4462Z" stroke="#53587A" stroke-width="1.6" stroke-linecap="round" stroke-linejoin="round"/>
<path id="Vector_2" d="M10.7913 10.6247C10.3162 11.0998 9.67184 11.3667 8.99996 11.3667C8.32808 11.3667 7.68371 11.0998 7.20862 10.6247C6.73353 10.1496 6.46663 9.50522 6.46663 8.83333C6.46663 8.16145 6.73353 7.51709 7.20862 7.042C7.68371 6.5669 8.32808 6.3 8.99996 6.3C9.67184 6.3 10.3162 6.5669 10.7913 7.042C11.2664 7.51709 11.5333 8.16145 11.5333 8.83333C11.5333 9.50522 11.2664 10.1496 10.7913 10.6247Z" stroke="#53587A" stroke-width="1.6" stroke-linecap="round" stroke-linejoin="round"/>
</g>
</svg>
