<svg width="29" height="27" viewBox="0 0 29 27" fill="none" xmlns="http://www.w3.org/2000/svg">
<g id="Iconly/Light outline/Wallet">
<g id="Wallet">
<path id="Vector" d="M20.2584 0.4375C24.672 0.4375 28.25 4.09659 28.25 8.61015V18.3899C28.25 22.9034 24.672 26.5625 20.2584 26.5625H8.74156C4.32801 26.5625 0.75 22.9034 0.75 18.3899V8.61015C0.75 4.09659 4.32801 0.4375 8.74156 0.4375H20.2584ZM20.2584 2.48146H8.74156C5.43184 2.48146 2.74867 5.22544 2.74867 8.61015V18.3899C2.74867 21.7746 5.43184 24.5185 8.74156 24.5185H20.2584C23.5682 24.5185 26.2513 21.7746 26.2513 18.3899L26.2507 18.0086L21.8562 18.0098C19.324 18.0082 17.2718 15.9105 17.2702 13.3205C17.2702 10.8176 19.1889 8.77336 21.6051 8.63843L21.8568 8.63134L26.2507 8.63113L26.2513 8.61015C26.2513 5.32499 23.7237 2.64342 20.5488 2.48853L20.2584 2.48146ZM26.2507 10.6744L21.8574 10.6753C20.4275 10.6762 19.2689 11.8602 19.2689 13.3199C19.2698 14.7115 20.3202 15.8515 21.6546 15.9577L21.8568 15.9658L26.2507 15.9654V10.6744ZM22.467 12.2146C23.0189 12.2146 23.4663 12.6722 23.4663 13.2366C23.4663 13.754 23.0904 14.1816 22.6026 14.2492L22.467 14.2586H22.0517C21.4998 14.2586 21.0523 13.801 21.0523 13.2366C21.0523 12.7192 21.4283 12.2916 21.9161 12.224L22.0517 12.2146H22.467ZM14.9866 6.62138C15.5385 6.62138 15.9859 7.07893 15.9859 7.64336C15.9859 8.16074 15.61 8.58833 15.1222 8.656L14.9866 8.66533H7.79279C7.24087 8.66533 6.79345 8.20778 6.79345 7.64336C6.79345 7.12597 7.16941 6.69838 7.65718 6.63071L7.79279 6.62138H14.9866Z" fill="#393C49"/>
</g>
</g>
</svg>
