<svg width="33" height="28" viewBox="0 0 33 28" fill="none" xmlns="http://www.w3.org/2000/svg">
<g id="ph:camera-thin" clip-path="url(#clip0_1_8638)">
<path id="Vector" d="M29.1315 4.32356H24.4152L22.0768 0.892529C22.0192 0.808136 21.9412 0.738913 21.8498 0.690976C21.7584 0.643039 21.6563 0.617864 21.5526 0.617676H11.4473C11.3436 0.617864 11.2415 0.643039 11.15 0.690976C11.0586 0.738913 10.9807 0.808136 10.9231 0.892529L8.5815 4.32356H3.86834C3.03082 4.32356 2.2276 4.64892 1.63538 5.22808C1.04316 5.80724 0.710449 6.59274 0.710449 7.41179V24.7059C0.710449 25.525 1.04316 26.3105 1.63538 26.8896C2.2276 27.4688 3.03082 27.7941 3.86834 27.7941H29.1315C29.969 27.7941 30.7723 27.4688 31.3645 26.8896C31.9567 26.3105 32.2894 25.525 32.2894 24.7059V7.41179C32.2894 6.59274 31.9567 5.80724 31.3645 5.22808C30.7723 4.64892 29.969 4.32356 29.1315 4.32356ZM31.0262 24.7059C31.0262 25.1973 30.8266 25.6686 30.4713 26.0161C30.116 26.3636 29.634 26.5589 29.1315 26.5589H3.86834C3.36583 26.5589 2.88389 26.3636 2.52856 26.0161C2.17323 25.6686 1.97361 25.1973 1.97361 24.7059V7.41179C1.97361 6.92036 2.17323 6.44906 2.52856 6.10157C2.88389 5.75407 3.36583 5.55885 3.86834 5.55885H8.92098C9.02498 5.55892 9.1274 5.53386 9.21912 5.48592C9.31085 5.43797 9.38904 5.36861 9.44677 5.284L11.7836 1.85297H21.2131L23.5531 5.284C23.6108 5.36861 23.689 5.43797 23.7807 5.48592C23.8725 5.53386 23.9749 5.55892 24.0789 5.55885H29.1315C29.634 5.55885 30.116 5.75407 30.4713 6.10157C30.8266 6.44906 31.0262 6.92036 31.0262 7.41179V24.7059ZM16.4999 9.26473C15.2508 9.26473 14.0297 9.62698 12.9911 10.3057C11.9524 10.9843 11.1429 11.949 10.6649 13.0776C10.1869 14.2062 10.0618 15.4481 10.3055 16.6462C10.5492 17.8443 11.1507 18.9448 12.034 19.8086C12.9173 20.6724 14.0426 21.2607 15.2678 21.499C16.4929 21.7373 17.7628 21.615 18.9169 21.1475C20.0709 20.68 21.0573 19.8884 21.7513 18.8727C22.4453 17.857 22.8157 16.6628 22.8157 15.4412C22.8157 13.8031 22.1503 12.2321 20.9659 11.0738C19.7814 9.91547 18.175 9.26473 16.4999 9.26473ZM16.4999 20.3824C15.5006 20.3824 14.5237 20.0926 13.6928 19.5496C12.8619 19.0067 12.2143 18.235 11.8319 17.3321C11.4495 16.4292 11.3494 15.4357 11.5444 14.4772C11.7393 13.5187 12.2205 12.6383 12.9272 11.9473C13.6338 11.2562 14.5341 10.7856 15.5142 10.595C16.4943 10.4043 17.5102 10.5022 18.4335 10.8762C19.3567 11.2501 20.1458 11.8835 20.701 12.696C21.2562 13.5086 21.5526 14.4639 21.5526 15.4412C21.5526 16.7517 21.0202 18.0085 20.0727 18.9351C19.1251 19.8618 17.84 20.3824 16.4999 20.3824Z" fill="black" fill-opacity="0.3"/>
</g>
<defs>
<clipPath id="clip0_1_8638">
<rect width="32" height="28" fill="white" transform="translate(0.5)"/>
</clipPath>
</defs>
</svg>
