<svg width="44" height="44" viewBox="0 0 44 44" fill="none" xmlns="http://www.w3.org/2000/svg">
<g id="8725860_focus_add_icon 1">
<path id="Vector" d="M14.6665 36.6667H9.1665C8.68027 36.6667 8.21396 36.4736 7.87014 36.1298C7.52633 35.786 7.33317 35.3196 7.33317 34.8334V29.3334C7.33317 28.8472 7.14002 28.3809 6.7962 28.0371C6.45238 27.6932 5.98607 27.5001 5.49984 27.5001C5.01361 27.5001 4.54729 27.6932 4.20347 28.0371C3.85966 28.3809 3.6665 28.8472 3.6665 29.3334V34.8334C3.6665 36.2921 4.24597 37.6911 5.27742 38.7225C6.30887 39.754 7.70781 40.3334 9.1665 40.3334H14.6665C15.1527 40.3334 15.6191 40.1403 15.9629 39.7964C16.3067 39.4526 16.4998 38.9863 16.4998 38.5001C16.4998 38.0139 16.3067 37.5475 15.9629 37.2037C15.6191 36.8599 15.1527 36.6667 14.6665 36.6667ZM5.49984 16.5001C5.98607 16.5001 6.45238 16.3069 6.7962 15.9631C7.14002 15.6193 7.33317 15.153 7.33317 14.6667V9.16675C7.33317 8.68052 7.52633 8.2142 7.87014 7.87039C8.21396 7.52657 8.68027 7.33341 9.1665 7.33341H14.6665C15.1527 7.33341 15.6191 7.14026 15.9629 6.79644C16.3067 6.45263 16.4998 5.98631 16.4998 5.50008C16.4998 5.01385 16.3067 4.54754 15.9629 4.20372C15.6191 3.8599 15.1527 3.66675 14.6665 3.66675H9.1665C7.70781 3.66675 6.30887 4.24621 5.27742 5.27766C4.24597 6.30911 3.6665 7.70806 3.6665 9.16675V14.6667C3.6665 15.153 3.85966 15.6193 4.20347 15.9631C4.54729 16.3069 5.01361 16.5001 5.49984 16.5001ZM34.8332 3.66675H29.3332C28.8469 3.66675 28.3806 3.8599 28.0368 4.20372C27.693 4.54754 27.4998 5.01385 27.4998 5.50008C27.4998 5.98631 27.693 6.45263 28.0368 6.79644C28.3806 7.14026 28.8469 7.33341 29.3332 7.33341H34.8332C35.3194 7.33341 35.7857 7.52657 36.1295 7.87039C36.4734 8.2142 36.6665 8.68052 36.6665 9.16675V14.6667C36.6665 15.153 36.8597 15.6193 37.2035 15.9631C37.5473 16.3069 38.0136 16.5001 38.4998 16.5001C38.9861 16.5001 39.4524 16.3069 39.7962 15.9631C40.14 15.6193 40.3332 15.153 40.3332 14.6667V9.16675C40.3332 7.70806 39.7537 6.30911 38.7223 5.27766C37.6908 4.24621 36.2919 3.66675 34.8332 3.66675ZM29.3332 22.0001C29.3332 21.5139 29.14 21.0475 28.7962 20.7037C28.4524 20.3599 27.9861 20.1667 27.4998 20.1667H23.8332V16.5001C23.8332 16.0139 23.64 15.5475 23.2962 15.2037C22.9524 14.8599 22.4861 14.6667 21.9998 14.6667C21.5136 14.6667 21.0473 14.8599 20.7035 15.2037C20.3597 15.5475 20.1665 16.0139 20.1665 16.5001V20.1667H16.4998C16.0136 20.1667 15.5473 20.3599 15.2035 20.7037C14.8597 21.0475 14.6665 21.5139 14.6665 22.0001C14.6665 22.4863 14.8597 22.9526 15.2035 23.2964C15.5473 23.6403 16.0136 23.8334 16.4998 23.8334H20.1665V27.5001C20.1665 27.9863 20.3597 28.4526 20.7035 28.7964C21.0473 29.1403 21.5136 29.3334 21.9998 29.3334C22.4861 29.3334 22.9524 29.1403 23.2962 28.7964C23.64 28.4526 23.8332 27.9863 23.8332 27.5001V23.8334H27.4998C27.9861 23.8334 28.4524 23.6403 28.7962 23.2964C29.14 22.9526 29.3332 22.4863 29.3332 22.0001ZM38.4998 27.5001C38.0136 27.5001 37.5473 27.6932 37.2035 28.0371C36.8597 28.3809 36.6665 28.8472 36.6665 29.3334V34.8334C36.6665 35.3196 36.4734 35.786 36.1295 36.1298C35.7857 36.4736 35.3194 36.6667 34.8332 36.6667H29.3332C28.8469 36.6667 28.3806 36.8599 28.0368 37.2037C27.693 37.5475 27.4998 38.0139 27.4998 38.5001C27.4998 38.9863 27.693 39.4526 28.0368 39.7964C28.3806 40.1403 28.8469 40.3334 29.3332 40.3334H34.8332C36.2919 40.3334 37.6908 39.754 38.7223 38.7225C39.7537 37.6911 40.3332 36.2921 40.3332 34.8334V29.3334C40.3332 28.8472 40.14 28.3809 39.7962 28.0371C39.4524 27.6932 38.9861 27.5001 38.4998 27.5001Z" fill="#58871D"/>
</g>
</svg>
