<svg width="32" height="32" viewBox="0 0 32 32" fill="none" xmlns="http://www.w3.org/2000/svg">
<g id="tabler:calendar-up">
<path id="Vector" d="M16.6666 28H7.99998C7.29274 28 6.61446 27.719 6.11436 27.2189C5.61426 26.7189 5.33331 26.0406 5.33331 25.3333V9.33333C5.33331 8.62609 5.61426 7.94781 6.11436 7.44771C6.61446 6.94762 7.29274 6.66667 7.99998 6.66667H24C24.7072 6.66667 25.3855 6.94762 25.8856 7.44771C26.3857 7.94781 26.6666 8.62609 26.6666 9.33333V16M21.3333 4V9.33333M10.6666 4V9.33333M5.33331 14.6667H26.6666M25.3333 29.3333V21.3333M25.3333 21.3333L29.3333 25.3333M25.3333 21.3333L21.3333 25.3333" stroke="#58871D" stroke-width="1.5" stroke-linecap="round" stroke-linejoin="round"/>
</g>
</svg>
